<svg width="135" height="161" viewBox="0 0 135 161" xmlns="http://www.w3.org/2000/svg"><title>D6189A81-C018-49CF-B237-BCBA50EC4516</title><g fill-rule="nonzero" fill="none"><path d="M126.892 135.105a7.508 7.508 0 0 0 7.5-7.5v-120a7.508 7.508 0 0 0-7.5-7.5h-80a7.508 7.508 0 0 0-7.5 7.5v7.083h5V7.604a2.502 2.502 0 0 1 2.5-2.5h80a2.502 2.502 0 0 1 2.5 2.5v120a2.502 2.502 0 0 1-2.5 2.5h-80v5h22.5v20h-10v5H119.6v-5h-10.208v-20h17.5zm-22.5 20h-30v-20h30v20z" fill="#000"/><path fill="#000" d="M49.392 110.312v14.793h75v-115h-75v35.417h5V15.105h65v105h-65v-9.793z"/><path d="M95.532 49.582l-8.554-17.334-8.555 17.334-19.129 2.78 13.84 13.492-3.266 19.053 17.11-8.996 17.109 8.996-3.27-19.053 13.841-13.492-19.126-2.78zm1.914 26.184l-10.468-5.504-10.47 5.504 1.998-11.658-8.47-8.255 11.707-1.7 5.235-10.606 5.234 10.605 11.704 1.7-8.47 8.257 2 11.657z" fill="#FFA320"/><path fill="#000" d="M69.47 90.105h34.922v5H69.47zM74.431 100.052h24.922v5H74.431z"/><path d="M27.5 15.26c-7.466 0-13.52 6.052-13.52 13.519-.001 7.466 6.051 13.52 13.518 13.52 7.466.001 13.52-6.051 13.52-13.518v-.001c-.008-7.463-6.055-13.51-13.518-13.52zm0 22.04a8.52 8.52 0 1 1 8.518-8.521v.001A8.528 8.528 0 0 1 27.5 37.3zM.608 57.525v38.379a14.28 14.28 0 0 0 11.767 14.033v50.959h30.25v-50.959a14.28 14.28 0 0 0 11.767-14.033V57.525c-.007-6.3-5.112-11.404-11.411-11.411H12.019C5.72 46.121.615 51.226.608 57.525zm48.784 0v38.379a9.252 9.252 0 0 1-6.767 8.88V70.528h-5v85.368h-7.488V101.01h-5v54.885h-7.762V70.528h-5v34.256a9.252 9.252 0 0 1-6.767-8.88V57.525a6.418 6.418 0 0 1 6.411-6.411h30.962a6.418 6.418 0 0 1 6.411 6.411z" fill="#FFA320"/></g></svg>