<svg width="102" height="104" viewBox="0 0 102 104" xmlns="http://www.w3.org/2000/svg"><title>2C21E6DE-B78D-417E-8C3B-BC800B6E35E2</title><g fill-rule="nonzero" fill="none"><path d="M0 63.486a3.197 3.197 0 0 0 3.188 3.2h35.154l-.012 9.6h-6.468v3.2h31.87v-3.2H41.519l.011-9.6h22.423v-3.2H3.188V57.68l60.424.166.01-3.2-60.434-.166V3.707h95.624v35.466H102V3.707a3.197 3.197 0 0 0-3.188-3.2H3.189A3.197 3.197 0 0 0 0 3.707v59.779z" fill="#222"/><path fill="#FFA320" d="M58.969 30.465h3.188v3.2h-3.188zM39.844 30.465h3.188v3.2h-3.188zM52.594 30.465h3.188v3.2h-3.188zM46.219 30.465h3.188v3.2h-3.188z"/><path d="M102 98.693v-51.2c-.003-2.65-2.142-4.797-4.781-4.8h-25.5c-2.64.003-4.779 2.15-4.781 4.8v51.2c.002 2.65 2.141 4.797 4.78 4.8h25.5c2.64-.003 4.78-2.15 4.782-4.8zm-31.875-40h28.688v28.933H70.124V58.694zm1.594-12.8h25.5c.88.001 1.592.717 1.594 1.6v8H70.124v-8a1.599 1.599 0 0 1 1.594-1.6zm-1.594 52.8v-7.866l28.688-.001v7.867a1.599 1.599 0 0 1-1.594 1.6h-25.5a1.599 1.599 0 0 1-1.594-1.6z" fill="#222"/><path fill="#222" d="M82.874 49.093h3.188v3.2h-3.188z"/><path fill="#FFA320" d="M79.687 69.894h3.188v3.2h-3.188zM86.062 69.894h3.188v3.2h-3.188z"/><path fill="#222" d="M81.28 93.92h6.377v3.2H81.28z"/></g></svg>