<svg width="102" height="102" viewBox="0 0 102 102" xmlns="http://www.w3.org/2000/svg"><title>EDCB2B62-65EC-4826-8C27-9F35CCDCCC0C</title><g fill-rule="nonzero" fill="none"><path d="M49.406 12.71a4.781 4.781 0 1 0 0 9.563 4.781 4.781 0 0 0 0-9.563zm0 6.375a1.594 1.594 0 1 1 0-3.187 1.594 1.594 0 0 1 0 3.187zM41.438 31.835h3.188v3.188h-3.188z" fill="#000"/><path fill="#FFA320" d="M60.563 31.835h3.188v3.188h-3.188z"/><path fill="#000" d="M54.188 31.835h3.188v3.188h-3.188z"/><path fill="#FFA320" d="M35.063 31.835h3.188v3.188h-3.188z"/><path fill="#000" d="M47.813 31.835h3.188v3.188h-3.188z"/><path fill="#FFA320" d="M41.438 38.21h3.188v3.188h-3.188z"/><path fill="#000" d="M47.813 38.21h3.188v3.188h-3.188zM35.063 38.21h3.188v3.188h-3.188zM60.563 38.21h3.188v3.188h-3.188zM54.188 38.21h3.188v3.188h-3.188zM54.188 44.585h3.188v3.188h-3.188zM35.063 44.585h3.188v3.188h-3.188z"/><path fill="#FFA320" d="M47.813 44.585h3.188v3.188h-3.188zM60.563 44.585h3.188v3.188h-3.188zM41.438 44.585h3.188v3.188h-3.188z"/><path fill="#000" d="M54.188 57.335h3.188v3.188h-3.188zM60.563 57.335h3.188v3.188h-3.188zM47.813 57.335h3.188v3.188h-3.188zM35.063 57.335h3.188v3.188h-3.188z"/><path fill="#FFA320" d="M41.438 57.335h3.188v3.188h-3.188zM47.813 63.71h3.188v3.188h-3.188z"/><path fill="#000" d="M60.563 63.71h3.188v3.188h-3.188zM41.438 63.71h3.188v3.188h-3.188zM35.063 63.71h3.188v3.188h-3.188z"/><path fill="#FFA320" d="M54.188 63.71h3.188v3.188h-3.188zM41.438 70.085h3.188v3.188h-3.188z"/><path fill="#000" d="M35.063 70.085h3.188v3.188h-3.188zM60.563 70.085h3.188v3.188h-3.188z"/><path fill="#FFA320" d="M54.188 70.085h3.188v3.188h-3.188z"/><path fill="#000" d="M47.813 70.085h3.188v3.188h-3.188z"/><path fill="#FFA320" d="M54.188 82.835h3.188v3.188h-3.188z"/><path fill="#000" d="M35.063 82.835h3.188v3.188h-3.188z"/><path fill="#FFA320" d="M41.438 82.835h3.188v3.188h-3.188z"/><path fill="#000" d="M60.563 82.835h3.188v3.188h-3.188z"/><path fill="#FFA320" d="M47.813 82.835h3.188v3.188h-3.188zM86.063 63.71h3.188v3.188h-3.188zM92.438 63.71h3.088v3.188h-3.088z"/><path fill="#000" d="M79.688 63.71h3.188v3.188h-3.188z"/><path fill="#FFA320" d="M73.313 63.71h3.188v3.188h-3.188z"/><path fill="#000" d="M73.313 70.085h3.188v3.188h-3.188zM92.438 70.085h3.088v3.188h-3.088zM86.063 70.085h3.188v3.188h-3.188z"/><path fill="#FFA320" d="M79.688 70.085h3.188v3.188h-3.188z"/><path d="M98.713 47.823H89.25v-6.425h-3.188v6.425h-6.374v9.512h-9.563v-3.187h3.188V50.96h-3.188V28.648h3.188V25.46h-3.188v-5.458L49.406.04 28.688 20.002v5.458H25.5v3.188h3.188v9.562h-6.375v-6.375h-6.375V25.46H12.75v6.375H3.187v6.375H0v63.75h102V57.335h-3.287v-9.512zM82.875 51.01h12.65v6.325h-12.65V51.01zm-15.938 6.325V76.46H31.876V54.148h35.063v3.187zM31.876 21.356l17.531-16.89 17.532 16.89v4.104H31.874v-4.104zm35.063 7.292V50.96H31.874V28.648h35.063zM6.374 35.023h12.75v3.187H6.375v-3.187zm-3.188 63.75V41.398h15.938v57.375H3.187zm19.125 0V41.398h6.375v9.562H25.5v3.188h3.188V76.46H25.5v3.188h3.188v19.125h-6.375zm31.975-6.475v6.475h-9.562v-6.475h9.562zm3.188 6.475v-6.475h3.087v-3.187H38.25v3.187h3.287v6.475h-9.662V79.648h35.063v19.125h-9.463zm41.337 0H70.126V79.648h3.188V76.46h-3.188V60.523h28.688v38.25z" fill="#000"/><path fill="#FFA320" d="M6.275 76.361h3.188v3.188H6.275z"/><path fill="#000" d="M6.275 89.111h3.188v3.188H6.275z"/><path fill="#FFA320" d="M6.275 44.486h3.188v3.188H6.275zM6.275 82.736h3.188v3.188H6.275zM6.275 57.236h3.188v3.188H6.275z"/><path fill="#000" d="M6.275 63.611h3.188v3.188H6.275zM6.275 69.986h3.188v3.188H6.275zM6.275 50.861h3.188v3.188H6.275zM12.65 69.986h3.188v3.188H12.65z"/><path fill="#FFA320" d="M12.65 76.361h3.188v3.188H12.65z"/><path fill="#000" d="M12.65 57.236h3.188v3.188H12.65z"/><path fill="#FFA320" d="M12.65 63.611h3.188v3.188H12.65zM12.65 50.861h3.188v3.188H12.65z"/><path fill="#000" d="M12.65 89.111h3.188v3.188H12.65zM12.65 44.486h3.188v3.188H12.65z"/><path fill="#FFA320" d="M12.65 82.736h3.188v3.188H12.65z"/></g></svg>