<svg width="98" height="102" viewBox="0 0 98 102" xmlns="http://www.w3.org/2000/svg"><title>01B15CA8-2ECC-43E2-92D1-571B8C78EC2F</title><g fill-rule="nonzero" fill="none"><path d="M52.022 57.394a1.596 1.596 0 0 0-1.344 1.818l1.196 7.708h-5.642l1.196-7.708a1.596 1.596 0 0 0-1.361-1.805 1.605 1.605 0 0 0-1.815 1.319l-6.426 41.437a1.596 1.596 0 0 0 1.59 1.837 1.603 1.603 0 0 0 1.585-1.351l.285-1.837H56.82l.285 1.837a1.603 1.603 0 0 0 1.831 1.332 1.596 1.596 0 0 0 1.344-1.818l-6.426-41.437a1.612 1.612 0 0 0-1.832-1.332zm-7.768 22.283h9.598l.99 6.38H43.264l.99-6.38zm1.592-9.57h6.419c.035 0 .065-.017.1-.02l.993 6.402h-8.61l.993-6.402c.037.002.068.02.105.02zm-4.065 25.518l.99-6.381h12.565l.99 6.381H41.78zM49.053 39.842c-4.436 0-8.033 3.568-8.033 7.969 0 4.4 3.597 7.969 8.033 7.969s8.033-3.568 8.033-7.97c-.005-4.398-3.599-7.963-8.033-7.968zm0 12.75c-2.662 0-4.82-2.14-4.82-4.781 0-2.64 2.158-4.781 4.82-4.781 2.662 0 4.82 2.14 4.82 4.78-.003 2.64-2.16 4.78-4.82 4.782z" fill="#FFA31F"/><path d="M57.997 66.354c.26 0 .515-.063.745-.182 10.219-5.308 14.165-17.83 8.814-27.967-5.35-10.137-17.972-14.052-28.19-8.744C29.145 34.769 25.2 47.29 30.55 57.427a20.803 20.803 0 0 0 8.76 8.717c.786.41 1.758.112 2.172-.666a1.588 1.588 0 0 0-.671-2.154c-8.633-4.517-11.94-15.12-7.387-23.683 4.552-8.564 15.24-11.845 23.873-7.328 8.632 4.516 11.94 15.119 7.387 23.682a17.601 17.601 0 0 1-7.435 7.354 1.587 1.587 0 0 0-.677 2.151c.277.526.826.855 1.424.854z" fill="#222"/><path d="M61.065 72.618c13.796-6.59 19.596-23.027 12.953-36.714-6.643-13.687-23.213-19.44-37.01-12.85-13.797 6.59-19.596 23.027-12.953 36.714a27.632 27.632 0 0 0 14.19 13.404 1.611 1.611 0 0 0 2.105-.846 1.589 1.589 0 0 0-.853-2.089C27.025 65.01 21.187 50.742 26.456 38.37c5.269-12.373 19.651-18.165 32.123-12.938C71.051 30.66 76.889 44.927 71.62 57.3a24.405 24.405 0 0 1-11.95 12.448c-.8.38-1.139 1.33-.757 2.125a1.612 1.612 0 0 0 2.152.745z" fill="#222"/><path d="M83.594 47.842c-.005-18.94-15.487-34.29-34.58-34.286-19.093.006-34.567 15.365-34.562 34.305.004 14.072 8.673 26.714 21.866 31.886a1.61 1.61 0 0 0 2.085-.893 1.59 1.59 0 0 0-.904-2.07C21.392 70.47 13.493 52.397 19.857 36.42c6.364-15.98 24.581-23.815 40.688-17.501 16.108 6.313 24.006 24.384 17.642 40.363-3.093 7.767-9.204 13.974-16.958 17.224a1.589 1.589 0 0 0-.854 2.089 1.611 1.611 0 0 0 2.106.847c12.808-5.356 21.13-17.81 21.113-31.6z" fill="#222"/><path d="M90.422 47.858C90.416 25.168 71.87 6.779 48.998 6.785 26.126 6.79 7.588 25.189 7.595 47.879c.004 17.106 10.693 32.419 26.832 38.442.18.068.372.103.566.103a1.6 1.6 0 0 0 1.606-1.593c0-.664-.414-1.259-1.04-1.492-19.747-7.37-29.732-29.224-22.304-48.812C20.684 14.938 42.714 5.032 62.46 12.402c19.746 7.37 29.731 29.223 22.302 48.812-3.785 9.981-11.634 17.918-21.622 21.863a1.59 1.59 0 0 0-.904 2.067 1.61 1.61 0 0 0 2.093.894c15.794-6.182 26.152-21.337 26.093-38.18z" fill="#222"/><path d="M48.993 0C22.337.005.733 21.446.737 47.89c.004 20.36 12.987 38.49 32.365 45.198a1.61 1.61 0 0 0 2.046-.98 1.59 1.59 0 0 0-.989-2.03C10.671 81.95-1.728 56.472 6.465 33.171 14.658 9.871 40.341-2.43 63.83 5.698c23.488 8.127 35.888 33.605 27.695 56.906-4.4 12.51-14.168 22.44-26.669 27.105a1.59 1.59 0 0 0-.937 2.052 1.61 1.61 0 0 0 2.068.93c24.948-9.314 37.56-36.928 28.17-61.677C87.078 12.358 69.088.004 48.993 0z" fill="#222"/></g></svg>