<svg width="219" height="117" viewBox="0 0 219 117" xmlns="http://www.w3.org/2000/svg" xmlns:xlink="http://www.w3.org/1999/xlink"><title>92ED88EB-0845-4CF7-AEAD-B6AE3187E266</title><defs><path id="a" d="M0 116.976h218.249V.44H0z"/><path id="c" d="M73.252.415H0v109.48h73.252V.415z"/></defs><g fill="none" fill-rule="evenodd" opacity=".1"><g transform="translate(0 -.39)"><path d="M66.483 104.991c3.832 0 6.193-2.77 6.193-6.6 0-3.828-2.482-6.647-6.235-6.647-3.826 0-6.181 2.82-6.181 6.648 0 3.829 2.482 6.6 6.223 6.6zm-6.054 11.983h-5.642v-29.85h5.345v2.14c1.133-1.137 3.324-2.522 6.902-2.522 6.817 0 11.279 4.79 11.279 11.565 0 6.515-4.377 11.693-11.533 11.693-2.99 0-5.219-1.222-6.35-2.19v9.164zM90.76 92.925h-1.434c-2.186 0-2.943 1.053-2.943 2.982v13.713h-5.642V87.118h5.642v1.809c.8-1.131 2.059-1.887 4.378-1.887v5.885zM103.166 104.91c3.711 0 6.102-2.777 6.102-6.521 0-3.738-2.524-6.563-6.144-6.563-3.7 0-6.103 2.782-6.103 6.563 0 3.786 2.53 6.52 6.145 6.52m-.042-18.17c7.113 0 11.787 4.966 11.787 11.608 0 6.605-4.837 11.65-11.787 11.65-7.023 0-11.74-4.924-11.74-11.566 0-6.684 4.971-11.692 11.74-11.692M129.033 104.991c3.832 0 6.193-2.77 6.193-6.6 0-3.828-2.482-6.647-6.235-6.647-3.826 0-6.181 2.82-6.181 6.648 0 3.829 2.482 6.6 6.223 6.6zm-6.054 11.983h-5.642v-29.85h5.345v2.14c1.132-1.137 3.324-2.522 6.902-2.522 6.817 0 11.279 4.79 11.279 11.565 0 6.515-4.377 11.693-11.533 11.693-2.991 0-5.219-1.222-6.351-2.19v9.164zM148.504 95.95h10.188c-.254-2.522-2.149-4.457-5.224-4.457-2.858 0-4.674 1.893-4.964 4.458zm-.128 4.253c.297 2.982 2.398 4.79 5.594 4.79 2.864 0 4.51-1.512 5.691-3.369l4.165 2.529c-1.35 2.812-4.377 5.843-9.856 5.843-6.81 0-11.527-4.41-11.527-11.565 0-6.727 4.547-11.693 11.067-11.693 6.775 0 11.025 4.422 11.025 11.148 0 .545 0 1.35-.079 2.317h-16.08z" fill="#FFF"/><mask id="b" fill="#fff"><use xlink:href="#a"/></mask><path fill="#FFF" mask="url(#b)" d="M166.838 109.62h5.642V78.88h-5.642zM175.761 109.62h5.643V78.88h-5.643zM189.892 95.95h10.189c-.254-2.522-2.15-4.457-5.225-4.457-2.857 0-4.673 1.893-4.964 4.458zm-.121 4.253c.29 2.982 2.391 4.79 5.588 4.79 2.863 0 4.51-1.512 5.69-3.369l4.166 2.529c-1.35 2.812-4.377 5.843-9.856 5.843-6.81 0-11.527-4.41-11.527-11.565 0-6.727 4.547-11.693 11.067-11.693 6.774 0 11.03 4.422 11.03 11.148 0 .545 0 1.35-.085 2.317h-16.073zM218.247 92.925h-1.434c-2.186 0-2.943 1.053-2.943 2.982v13.713h-5.642V87.118h5.642v1.809c.8-1.131 2.059-1.887 4.377-1.887v5.885z"/></g><g transform="translate(0 -.365)"><mask id="d" fill="#fff"><use xlink:href="#c"/></mask><path d="M73.252 37.008C73.252 16.828 56.82.412 36.625.412h-.303v66.452C33.265 49.752 18.292 36.705.3 36.705h-.302V73.3c0 20.179 16.43 36.595 36.627 36.595h.302v-36.31c20.057-.164 36.325-16.502 36.325-36.577" fill="#FFF" mask="url(#d)"/></g></g></svg>