<svg width="110" height="59" viewBox="0 0 110 59" xmlns="http://www.w3.org/2000/svg" xmlns:xlink="http://www.w3.org/1999/xlink"><title>4C44C764-D7B2-436A-8F15-BF5AF79EB788</title><defs><path id="a" d="M0 58.488h109.124V.22H0z"/><path id="c" d="M36.626.708H0v54.74h36.626V.708z"/></defs><g fill="none" fill-rule="evenodd"><g transform="translate(0 -.195)"><path d="M33.242 52.496c1.916 0 3.096-1.386 3.096-3.3s-1.24-3.324-3.118-3.324c-1.913 0-3.09 1.41-3.09 3.324s1.24 3.3 3.112 3.3zm-3.027 5.99h-2.822V43.563h2.673v1.07c.566-.568 1.662-1.261 3.451-1.261 3.408 0 5.64 2.395 5.64 5.783 0 3.257-2.19 5.846-5.767 5.846-1.495 0-2.61-.611-3.175-1.095v4.582zM45.38 46.463h-.717c-1.093 0-1.471.526-1.471 1.49v6.857H40.37V43.56h2.82v.903c.4-.565 1.03-.943 2.19-.943v2.943zM51.583 52.455c1.856 0 3.051-1.388 3.051-3.26 0-1.87-1.262-3.282-3.072-3.282-1.85 0-3.051 1.391-3.051 3.281 0 1.894 1.265 3.26 3.072 3.26m-.021-9.085c3.557 0 5.893 2.484 5.893 5.804 0 3.303-2.418 5.825-5.893 5.825-3.512 0-5.87-2.462-5.87-5.782 0-3.342 2.486-5.847 5.87-5.847M64.517 52.496c1.916 0 3.096-1.386 3.096-3.3s-1.24-3.324-3.118-3.324c-1.913 0-3.09 1.41-3.09 3.324s1.24 3.3 3.112 3.3zm-3.027 5.99h-2.822V43.563h2.673v1.07c.566-.568 1.662-1.261 3.451-1.261 3.408 0 5.64 2.395 5.64 5.783 0 3.257-2.19 5.846-5.767 5.846-1.495 0-2.61-.611-3.175-1.095v4.582zM74.252 47.975h5.094c-.127-1.26-1.074-2.229-2.612-2.229-1.429 0-2.337.947-2.482 2.23zm-.064 2.126c.149 1.491 1.199 2.396 2.797 2.396 1.432 0 2.255-.756 2.846-1.685l2.082 1.264c-.675 1.407-2.188 2.922-4.928 2.922-3.405 0-5.763-2.205-5.763-5.783 0-3.363 2.273-5.846 5.533-5.846 3.387 0 5.512 2.211 5.512 5.574 0 .272 0 .675-.039 1.158h-8.04z" fill="#FFF"/><mask id="b" fill="#fff"><use xlink:href="#a"/></mask><path fill="#FFF" mask="url(#b)" d="M83.419 54.81h2.821V39.44h-2.821zM87.88 54.81h2.822V39.44H87.88zM94.946 47.975h5.095c-.128-1.26-1.075-2.229-2.613-2.229-1.429 0-2.337.947-2.482 2.23zm-.06 2.126c.145 1.491 1.195 2.396 2.793 2.396 1.432 0 2.256-.756 2.846-1.685l2.082 1.264c-.675 1.407-2.188 2.922-4.928 2.922-3.405 0-5.763-2.205-5.763-5.783 0-3.363 2.273-5.846 5.533-5.846 3.388 0 5.516 2.211 5.516 5.574 0 .272 0 .675-.043 1.158h-8.037zM109.124 46.463h-.718c-1.092 0-1.47.526-1.47 1.49v6.857h-2.822V43.56h2.821v.903c.4-.565 1.03-.943 2.189-.943v2.943z"/></g><g transform="translate(0 -.682)"><mask id="d" fill="#fff"><use xlink:href="#c"/></mask><path d="M36.626 19.004C36.626 8.914 28.41.706 18.312.706h-.151v33.226c-1.529-8.556-9.015-15.08-18.01-15.08h-.152V37.15c0 10.09 8.215 18.298 18.313 18.298h.152V37.292c10.028-.081 18.162-8.25 18.162-18.288" fill="#FFF" mask="url(#d)"/></g></g></svg>