<svg width="99" height="102" viewBox="0 0 99 102" xmlns="http://www.w3.org/2000/svg"><title>C916475A-CD98-4B8E-8C60-976E61D3A887</title><g fill-rule="nonzero" fill="none"><path d="M98.736 100.406V18.708c0-.426-.171-.835-.475-1.134L80.902.46A1.596 1.596 0 0 0 79.78 0H25.024c-.881 0-1.596.714-1.596 1.594v77.695h3.193V3.187h51.562v17.326h17.36v78.3H26.62v-5.977h-3.193v7.57c0 .88.715 1.594 1.596 1.594H97.14c.882 0 1.597-.714 1.597-1.594zM81.377 5.408l12.088 11.918H81.377V5.408z" fill="#222"/><path fill="#222" d="M38.595 15.938h19.21v3.188h-19.21z"/><path d="M2.522 98.027l14.52-14.492 5.258 5.248a1.598 1.598 0 0 0 2.258 0l18.033-17.998 5.258 5.248a1.598 1.598 0 0 0 2.258 0l18.032-17.998 5.258 5.248a1.598 1.598 0 0 0 2.258 0l10.049-10.03 3.661 3.655a1.599 1.599 0 0 0 2.726-1.127V46.22c0-.88-.715-1.594-1.597-1.594H79.317v3.188h9.58v4.12l-2.064-2.06a1.598 1.598 0 0 0-2.258 0l-10.049 10.03-5.258-5.249a1.598 1.598 0 0 0-2.257 0L48.977 72.653l-5.258-5.249a1.598 1.598 0 0 0-2.258 0L23.429 85.403l-5.258-5.249a1.598 1.598 0 0 0-2.257 0L.263 95.774l2.258 2.253z" fill="#FFA31F"/><path fill="#222" d="M88.897 60.563h3.194v35.063h-3.194zM82.51 63.748h3.194v31.877H82.51zM76.123 71.714h3.194v23.911h-3.194zM69.736 66.934h3.194v28.691h-3.194zM63.349 70.12h3.194v25.505h-3.194zM56.961 73.307h3.194v22.318h-3.194zM50.574 79.688h3.194v15.938h-3.194zM44.187 82.875h3.194v12.75h-3.194zM37.8 81.278h3.194v14.347H37.8zM31.413 86.063h3.194v9.563h-3.194zM38 25.699h44.51v3.188H38zM37.8 31.875h44.71v3.188H37.8zM37.8 38.25h25.548v3.188H37.8zM37.8 44.625h25.548v3.188H37.8z"/></g></svg>